999
DXF created from QGIS
  0
SECTION
  2
HEADER
  9
$ACADVER
  1
AC1015
  9
$EXTMIN
 10
177949.86256330646574497
 20
9701764.00434024259448051
 30
0.0
  9
$EXTMAX
 10
187447.97247919836081564
 20
9705895.32780060358345509
 30
0.0
  9
$LTSCALE
 40
1.0
  9
$PDMODE
 70
    33
  9
$PDSIZE
 40
     1
  9
$PSLTSCALE
 70
     0
  9
$HANDSEED
  5
9999999
  9
$DWGCODEPAGE
  3
ANSI_1252
  0
ENDSEC
  0
SECTION
  2
TABLES
  0
TABLE
  2
LTYPE
  5
64
100
AcDbSymbolTable
 70
     5
  0
LTYPE
  5
65
100
AcDbSymbolTableRecord
100
AcDbLinetypeTableRecord
  2
ByLayer
 70
    64
  3
Defaultstyle
 72
    65
 73
     0
 40
0.0
  0
LTYPE
  5
66
100
AcDbSymbolTableRecord
100
AcDbLinetypeTableRecord
  2
ByBlock
 70
    64
  3
Defaultstyle
 72
    65
 73
     0
 40
0.0
  0
LTYPE
  5
67
100
AcDbSymbolTableRecord
100
AcDbLinetypeTableRecord
  2
CONTINUOUS
 70
    64
  3
Defaultstyle
 72
    65
 73
     0
 40
0.0
  0
LTYPE
  5
68
100
AcDbSymbolTableRecord
100
AcDbLinetypeTableRecord
  2
DASH
 70
    64
  3

 72
    65
 73
     2
 40
0.0026
 49
0.002
 74
     0
 49
-0.0006
 74
     0
  0
LTYPE
  5
69
100
AcDbSymbolTableRecord
100
AcDbLinetypeTableRecord
  2
DOT
 70
    64
  3

 72
    65
 73
     2
 40
0.0012
 49
0.0006
 74
     0
 49
-0.0006
 74
     0
  0
LTYPE
  5
6a
100
AcDbSymbolTableRecord
100
AcDbLinetypeTableRecord
  2
DASHDOT
 70
    64
  3

 72
    65
 73
     4
 40
0.0038
 49
0.002
 74
     0
 49
-0.0006
 74
     0
 49
0.0006
 74
     0
 49
-0.0006
 74
     0
  0
LTYPE
  5
6b
100
AcDbSymbolTableRecord
100
AcDbLinetypeTableRecord
  2
DASHDOTDOT
 70
    64
  3

 72
    65
 73
     6
 40
0.005
 49
0.002
 74
     0
 49
-0.0006
 74
     0
 49
0.0006
 74
     0
 49
-0.0006
 74
     0
 49
0.0006
 74
     0
 49
-0.0006
 74
     0
  0
ENDTAB
  0
TABLE
  2
BLOCK_RECORD
  5
6c
100
AcDbSymbolTable
 70
     0
  0
BLOCK_RECORD
  5
6d
100
AcDbSymbolTableRecord
100
AcDbBlockTableRecord
  2
*Model_Space
  0
BLOCK_RECORD
  5
6e
100
AcDbSymbolTableRecord
100
AcDbBlockTableRecord
  2
*Paper_Space
  0
BLOCK_RECORD
  5
6f
100
AcDbSymbolTableRecord
100
AcDbBlockTableRecord
  2
*Paper_Space0
  0
ENDTAB
  0
TABLE
  2
APPID
  5
70
100
AcDbSymbolTable
 70
     1
  0
APPID
  5
71
100
AcDbSymbolTableRecord
100
AcDbRegAppTableRecord
  2
ACAD
 70
     0
  0
ENDTAB
  0
TABLE
  2
VIEW
  5
72
100
AcDbSymbolTable
 70
     0
  0
ENDTAB
  0
TABLE
  2
UCS
  5
73
100
AcDbSymbolTable
 70
     0
  0
ENDTAB
  0
TABLE
  2
VPORT
  5
74
100
AcDbSymbolTable
  0
VPORT
  5
75
100
AcDbSymbolTableRecord
100
AcDbViewportTableRecord
  2
*ACTIVE
 70
     0
 10
0.0
 20
0.0
 11
1.0
 21
1.0
 12
0.0
 22
0.0
 13
0.0
 23
0.0
 14
1.0
 24
1.0
 15
1.0
 25
1.0
 16
0.0
 26
0.0
 36
1.0
 17
182698.91752125241328031
 27
9703829.66607042402029037
 40
4131.32346036098897457
 41
2.29904775237859615
 42
50.0
 43
0.0
 44
0.0
 50
0.0
 51
0.0
 71
     0
 72
   100
 73
     1
 74
     1
 75
     0
 76
     0
 77
     0
 78
     0
281
     0
 65
     1
110
0.0
120
0.0
130
0.0
111
1.0
121
0.0
131
0.0
112
0.0
122
1.0
132
0.0
 79
     0
146
0.0
 70
     0
  0
ENDTAB
  0
TABLE
  2
DIMSTYLE
  5
76
100
AcDbSymbolTable
100
AcDbDimStyleTable
 70
     0
  0
ENDTAB
  0
TABLE
  2
LAYER
  5
77
100
AcDbSymbolTable
 70
     2
  0
LAYER
  5
78
100
AcDbSymbolTableRecord
100
AcDbLayerTableRecord
  2
0
 70
    64
 62
     1
  6
CONTINUOUS
390
f
  0
LAYER
  5
79
100
AcDbSymbolTableRecord
100
AcDbLayerTableRecord
  2
HD_Gohong
 70
    64
 62
     1
  6
CONTINUOUS
390
f
  0
ENDTAB
  0
TABLE
  2
STYLE
  5
7a
100
AcDbSymbolTable
 70
     1
  0
STYLE
  5
7b
100
AcDbSymbolTableRecord
100
AcDbTextStyleTableRecord
  2
STANDARD
 70
    64
 40
0.0
 41
1.0
 50
0.0
 71
     0
 42
5.0
  3
romans.shx
  4

  0
ENDTAB
  0
ENDSEC
  0
SECTION
  2
BLOCKS
  0
BLOCK
  5
7c
330
6d
100
AcDbEntity
  8
0
100
AcDbBlockBegin
  2
*Model_Space
 70
     0
 10
0.0
 20
0.0
 30
0.0
  3
*Model_Space
  1

  0
ENDBLK
  5
7d
100
AcDbEntity
  8
0
100
AcDbBlockEnd
  0
BLOCK
  5
7e
330
6e
100
AcDbEntity
  8
0
100
AcDbBlockBegin
  2
*Paper_Space
 70
     0
 10
0.0
 20
0.0
 30
0.0
  3
*Paper_Space
  1

  0
ENDBLK
  5
7f
100
AcDbEntity
  8
0
100
AcDbBlockEnd
  0
BLOCK
  5
80
330
6f
100
AcDbEntity
  8
0
100
AcDbBlockBegin
  2
*Paper_Space0
 70
     0
 10
0.0
 20
0.0
 30
0.0
  3
*Paper_Space0
  1

  0
ENDBLK
  5
81
100
AcDbEntity
  8
0
100
AcDbBlockEnd
  0
ENDSEC
  0
SECTION
  2
ENTITIES
  0
POLYLINE
  5
82
330
6d
100
AcDbEntity
  8
PAK
  6
CONTINUOUS
420
     0
100
AcDb3dPolyline
 10
0.0
 20
0.0
 30
0.0
 70
     8
  0
VERTEX
  5
83
330
   130
100
AcDbEntity
  8
PAK
420
     0
100
AcDbVertex
100
AcDb3dPolylineVertex
 10
187409.72505714034195989
 20
9702510.7526665274053812
 30
0.0
 70
    32
  0
VERTEX
  5
84
330
   130
100
AcDbEntity
  8
PAK
420
     0
100
AcDbVertex
100
AcDb3dPolylineVertex
 10
186833.30316631030291319
 20
9702500.42037942446768284
 30
0.0
 70
    32
  0
VERTEX
  5
85
330
   130
100
AcDbEntity
  8
PAK
420
     0
100
AcDbVertex
100
AcDb3dPolylineVertex
 10
186021.01914219179889187
 20
9702500.13069398701190948
 30
0.0
 70
    32
  0
VERTEX
  5
86
330
   130
100
AcDbEntity
  8
PAK
420
     0
100
AcDbVertex
100
AcDb3dPolylineVertex
 10
185120.95447900122962892
 20
9702501.21949557401239872
 30
0.0
 70
    32
  0
VERTEX
  5
87
330
   130
100
AcDbEntity
  8
PAK
420
     0
100
AcDbVertex
100
AcDb3dPolylineVertex
 10
185018.82728281139861792
 20
9702497.80863621830940247
 30
0.0
 70
    32
  0
VERTEX
  5
88
330
   130
100
AcDbEntity
  8
PAK
420
     0
100
AcDbVertex
100
AcDb3dPolylineVertex
 10
184961.40602573362411931
 20
9702484.97977674007415771
 30
0.0
 70
    32
  0
VERTEX
  5
89
330
   130
100
AcDbEntity
  8
PAK
420
     0
100
AcDbVertex
100
AcDb3dPolylineVertex
 10
184872.14873657148564234
 20
9702437.16406287811696529
 30
0.0
 70
    32
  0
VERTEX
  5
8a
330
   130
100
AcDbEntity
  8
PAK
420
     0
100
AcDbVertex
100
AcDb3dPolylineVertex
 10
184363.67215592425782233
 20
9702177.30842185206711292
 30
0.0
 70
    32
  0
VERTEX
  5
8b
330
   130
100
AcDbEntity
  8
PAK
420
     0
100
AcDbVertex
100
AcDb3dPolylineVertex
 10
184051.22401086648460478
 20
9702030.58033266104757786
 30
0.0
 70
    32
  0
VERTEX
  5
8c
330
   130
100
AcDbEntity
  8
PAK
420
     0
100
AcDbVertex
100
AcDb3dPolylineVertex
 10
183910.81789558206219226
 20
9702017.55721298791468143
 30
0.0
 70
    32
  0
VERTEX
  5
8d
330
   130
100
AcDbEntity
  8
PAK
420
     0
100
AcDbVertex
100
AcDb3dPolylineVertex
 10
183735.29525819339323789
 20
9702007.62589137814939022
 30
0.0
 70
    32
  0
VERTEX
  5
8e
330
   130
100
AcDbEntity
  8
PAK
420
     0
100
AcDbVertex
100
AcDb3dPolylineVertex
 10
183205.40075095475185663
 20
9702034.95357725024223328
 30
0.0
 70
    32
  0
VERTEX
  5
8f
330
   130
100
AcDbEntity
  8
PAK
420
     0
100
AcDbVertex
100
AcDb3dPolylineVertex
 10
183144.72798223403515294
 20
9702047.5075049139559269
 30
0.0
 70
    32
  0
VERTEX
  5
90
330
   130
100
AcDbEntity
  8
PAK
420
     0
100
AcDbVertex
100
AcDb3dPolylineVertex
 10
183001.04010386660229415
 20
9702072.5630611777305603
 30
0.0
 70
    32
  0
VERTEX
  5
91
330
   130
100
AcDbEntity
  8
PAK
420
     0
100
AcDbVertex
100
AcDb3dPolylineVertex
 10
182898.86704427003860474
 20
9702088.19380094669759274
 30
0.0
 70
    32
  0
VERTEX
  5
92
330
   130
100
AcDbEntity
  8
PAK
420
     0
100
AcDbVertex
100
AcDb3dPolylineVertex
 10
182739.24975281144725159
 20
9702100.51609724014997482
 30
0.0
 70
    32
  0
VERTEX
  5
93
330
   130
100
AcDbEntity
  8
PAK
420
     0
100
AcDbVertex
100
AcDb3dPolylineVertex
 10
182684.97506655484903604
 20
9702106.73696212843060493
 30
0.0
 70
    32
  0
VERTEX
  5
94
330
   130
100
AcDbEntity
  8
PAK
420
     0
100
AcDbVertex
100
AcDb3dPolylineVertex
 10
182335.51085352886002511
 20
9702091.63560854271054268
 30
0.0
 70
    32
  0
VERTEX
  5
95
330
   130
100
AcDbEntity
  8
PAK
420
     0
100
AcDbVertex
100
AcDb3dPolylineVertex
 10
181786.57847267703618854
 20
9702068.13017158024013042
 30
0.0
 70
    32
  0
VERTEX
  5
96
330
   130
100
AcDbEntity
  8
PAK
420
     0
100
AcDbVertex
100
AcDb3dPolylineVertex
 10
181315.81662224506726488
 20
9702055.9151182509958744
 30
0.0
 70
    32
  0
VERTEX
  5
97
330
   130
100
AcDbEntity
  8
PAK
420
     0
100
AcDbVertex
100
AcDb3dPolylineVertex
 10
180562.59718851605430245
 20
9702035.09785243310034275
 30
0.0
 70
    32
  0
VERTEX
  5
98
330
   130
100
AcDbEntity
  8
PAK
420
     0
100
AcDbVertex
100
AcDb3dPolylineVertex
 10
180380.70148895995225757
 20
9702018.79891825094819069
 30
0.0
 70
    32
  0
VERTEX
  5
99
330
   130
100
AcDbEntity
  8
PAK
420
     0
100
AcDbVertex
100
AcDb3dPolylineVertex
 10
179749.0063895225757733
 20
9701896.69445661455392838
 30
0.0
 70
    32
  0
VERTEX
  5
9a
330
   130
100
AcDbEntity
  8
PAK
420
     0
100
AcDbVertex
100
AcDb3dPolylineVertex
 10
179541.59771458845352754
 20
9701870.81167035549879074
 30
0.0
 70
    32
  0
VERTEX
  5
9b
330
   130
100
AcDbEntity
  8
PAK
420
     0
100
AcDbVertex
100
AcDb3dPolylineVertex
 10
179308.69920657586771995
 20
9701825.82389065995812416
 30
0.0
 70
    32
  0
VERTEX
  5
9c
330
   130
100
AcDbEntity
  8
PAK
420
     0
100
AcDbVertex
100
AcDb3dPolylineVertex
 10
179165.08916467824019492
 20
9701815.96161340735852718
 30
0.0
 70
    32
  0
VERTEX
  5
9d
330
   130
100
AcDbEntity
  8
PAK
420
     0
100
AcDbVertex
100
AcDb3dPolylineVertex
 10
178973.57126528222579509
 20
9701818.68179008364677429
 30
0.0
 70
    32
  0
VERTEX
  5
9e
330
   130
100
AcDbEntity
  8
PAK
420
     0
100
AcDbVertex
100
AcDb3dPolylineVertex
 10
178791.58343802933814004
 20
9701840.46862572059035301
 30
0.0
 70
    32
  0
VERTEX
  5
9f
330
   130
100
AcDbEntity
  8
PAK
420
     0
100
AcDbVertex
100
AcDb3dPolylineVertex
 10
178692.63613559945952147
 20
9701840.23391477949917316
 30
0.0
 70
    32
  0
VERTEX
  5
a0
330
   130
100
AcDbEntity
  8
PAK
420
     0
100
AcDbVertex
100
AcDb3dPolylineVertex
 10
178513.9451676303287968
 20
9701817.59144433401525021
 30
0.0
 70
    32
  0
VERTEX
  5
a1
330
   130
100
AcDbEntity
  8
PAK
420
     0
100
AcDbVertex
100
AcDb3dPolylineVertex
 10
178146.97198417288018391
 20
9701778.63094509206712246
 30
0.0
 70
    32
  0
VERTEX
  5
a2
330
   130
100
AcDbEntity
  8
PAK
420
     0
100
AcDbVertex
100
AcDb3dPolylineVertex
 10
177958.79151384613942355
 20
9701764.00434024259448051
 30
0.0
 70
    32
  0
VERTEX
  5
a3
330
   130
100
AcDbEntity
  8
PAK
420
     0
100
AcDbVertex
100
AcDb3dPolylineVertex
 10
178057.87011999235255644
 20
9702633.04393680766224861
 30
0.0
 70
    32
  0
VERTEX
  5
a4
330
   130
100
AcDbEntity
  8
PAK
420
     0
100
AcDbVertex
100
AcDb3dPolylineVertex
 10
178032.93608794588362798
 20
9703120.4034638199955225
 30
0.0
 70
    32
  0
VERTEX
  5
a5
330
   130
100
AcDbEntity
  8
PAK
420
     0
100
AcDbVertex
100
AcDb3dPolylineVertex
 10
178011.10726867592893541
 20
9703551.61917285807430744
 30
0.0
 70
    32
  0
VERTEX
  5
a6
330
   130
100
AcDbEntity
  8
PAK
420
     0
100
AcDbVertex
100
AcDb3dPolylineVertex
 10
178010.2340004532597959
 20
9703561.74977996200323105
 30
0.0
 70
    32
  0
VERTEX
  5
a7
330
   130
100
AcDbEntity
  8
PAK
420
     0
100
AcDbVertex
100
AcDb3dPolylineVertex
 10
177994.8673432266805321
 20
9703774.91950298100709915
 30
0.0
 70
    32
  0
VERTEX
  5
a8
330
   130
100
AcDbEntity
  8
PAK
420
     0
100
AcDbVertex
100
AcDb3dPolylineVertex
 10
177982.87921523785917088
 20
9703937.7996539194136858
 30
0.0
 70
    32
  0
VERTEX
  5
a9
330
   130
100
AcDbEntity
  8
PAK
420
     0
100
AcDbVertex
100
AcDb3dPolylineVertex
 10
177976.90555953851435333
 20
9704018.96368297375738621
 30
0.0
 70
    32
  0
VERTEX
  5
aa
330
   130
100
AcDbEntity
  8
PAK
420
     0
100
AcDbVertex
100
AcDb3dPolylineVertex
 10
177976.87897596962284297
 20
9704019.32522056438028812
 30
0.0
 70
    32
  0
VERTEX
  5
ab
330
   130
100
AcDbEntity
  8
PAK
420
     0
100
AcDbVertex
100
AcDb3dPolylineVertex
 10
177976.60432771133491769
 20
9704024.28923665173351765
 30
0.0
 70
    32
  0
VERTEX
  5
ac
330
   130
100
AcDbEntity
  8
PAK
420
     0
100
AcDbVertex
100
AcDb3dPolylineVertex
 10
177976.43530920601915568
 20
9704027.34576905518770218
 30
0.0
 70
    32
  0
VERTEX
  5
ad
330
   130
100
AcDbEntity
  8
PAK
420
     0
100
AcDbVertex
100
AcDb3dPolylineVertex
 10
177963.74514381738845259
 20
9704228.82386781647801399
 30
0.0
 70
    32
  0
VERTEX
  5
ae
330
   130
100
AcDbEntity
  8
PAK
420
     0
100
AcDbVertex
100
AcDb3dPolylineVertex
 10
177949.86256330646574497
 20
9704449.2274508886039257
 30
0.0
 70
    32
  0
VERTEX
  5
af
330
   130
100
AcDbEntity
  8
PAK
420
     0
100
AcDbVertex
100
AcDb3dPolylineVertex
 10
177954.05048433283809572
 20
9704464.78073392249643803
 30
0.0
 70
    32
  0
VERTEX
  5
b0
330
   130
100
AcDbEntity
  8
PAK
420
     0
100
AcDbVertex
100
AcDb3dPolylineVertex
 10
178017.64039409661199898
 20
9704692.36575218476355076
 30
0.0
 70
    32
  0
VERTEX
  5
b1
330
   130
100
AcDbEntity
  8
PAK
420
     0
100
AcDbVertex
100
AcDb3dPolylineVertex
 10
178156.47351710987277329
 20
9705192.19911962933838367
 30
0.0
 70
    32
  0
VERTEX
  5
b2
330
   130
100
AcDbEntity
  8
PAK
420
     0
100
AcDbVertex
100
AcDb3dPolylineVertex
 10
178203.48030996299348772
 20
9705370.98934797197580338
 30
0.0
 70
    32
  0
VERTEX
  5
b3
330
   130
100
AcDbEntity
  8
PAK
420
     0
100
AcDbVertex
100
AcDb3dPolylineVertex
 10
178254.97478524723555893
 20
9705630.16260459274053574
 30
0.0
 70
    32
  0
VERTEX
  5
b4
330
   130
100
AcDbEntity
  8
PAK
420
     0
100
AcDbVertex
100
AcDb3dPolylineVertex
 10
178271.43285484588705003
 20
9705733.15789693966507912
 30
0.0
 70
    32
  0
VERTEX
  5
b5
330
   130
100
AcDbEntity
  8
PAK
420
     0
100
AcDbVertex
100
AcDb3dPolylineVertex
 10
178312.46779059851542115
 20
9705895.32780060358345509
 30
0.0
 70
    32
  0
VERTEX
  5
b6
330
   130
100
AcDbEntity
  8
PAK
420
     0
100
AcDbVertex
100
AcDb3dPolylineVertex
 10
178872.17651147325523198
 20
9705849.97559434548020363
 30
0.0
 70
    32
  0
VERTEX
  5
b7
330
   130
100
AcDbEntity
  8
PAK
420
     0
100
AcDbVertex
100
AcDb3dPolylineVertex
 10
179313.1223514667362906
 20
9705816.13420373201370239
 30
0.0
 70
    32
  0
VERTEX
  5
b8
330
   130
100
AcDbEntity
  8
PAK
420
     0
100
AcDbVertex
100
AcDb3dPolylineVertex
 10
179694.77805202954914421
 20
9705784.64414390549063683
 30
0.0
 70
    32
  0
VERTEX
  5
b9
330
   130
100
AcDbEntity
  8
PAK
420
     0
100
AcDbVertex
100
AcDb3dPolylineVertex
 10
180134.86436488415347412
 20
9705759.93168771080672741
 30
0.0
 70
    32
  0
VERTEX
  5
ba
330
   130
100
AcDbEntity
  8
PAK
420
     0
100
AcDbVertex
100
AcDb3dPolylineVertex
 10
180560.79525759408716112
 20
9705717.74915160797536373
 30
0.0
 70
    32
  0
VERTEX
  5
bb
330
   130
100
AcDbEntity
  8
PAK
420
     0
100
AcDbVertex
100
AcDb3dPolylineVertex
 10
180987.54590902390191332
 20
9705681.37943531386554241
 30
0.0
 70
    32
  0
VERTEX
  5
bc
330
   130
100
AcDbEntity
  8
PAK
420
     0
100
AcDbVertex
100
AcDb3dPolylineVertex
 10
181409.30446344497613609
 20
9705636.69429695047438145
 30
0.0
 70
    32
  0
VERTEX
  5
bd
330
   130
100
AcDbEntity
  8
PAK
420
     0
100
AcDbVertex
100
AcDb3dPolylineVertex
 10
181833.54502094595227391
 20
9705601.14691921323537827
 30
0.0
 70
    32
  0
VERTEX
  5
be
330
   130
100
AcDbEntity
  8
PAK
420
     0
100
AcDbVertex
100
AcDb3dPolylineVertex
 10
182671.38002535491250455
 20
9705528.15622022375464439
 30
0.0
 70
    32
  0
VERTEX
  5
bf
330
   130
100
AcDbEntity
  8
PAK
420
     0
100
AcDbVertex
100
AcDb3dPolylineVertex
 10
183093.11762338189873844
 20
9705489.69396047666668892
 30
0.0
 70
    32
  0
VERTEX
  5
c0
330
   130
100
AcDbEntity
  8
PAK
420
     0
100
AcDbVertex
100
AcDb3dPolylineVertex
 10
184446.27760535752167925
 20
9705362.3090949859470129
 30
0.0
 70
    32
  0
VERTEX
  5
c1
330
   130
100
AcDbEntity
  8
PAK
420
     0
100
AcDbVertex
100
AcDb3dPolylineVertex
 10
185655.86607496719807386
 20
9705257.41605667769908905
 30
0.0
 70
    32
  0
VERTEX
  5
c2
330
   130
100
AcDbEntity
  8
PAK
420
     0
100
AcDbVertex
100
AcDb3dPolylineVertex
 10
186899.38946126581868157
 20
9705139.61945203691720963
 30
0.0
 70
    32
  0
VERTEX
  5
c3
330
   130
100
AcDbEntity
  8
PAK
420
     0
100
AcDbVertex
100
AcDb3dPolylineVertex
 10
187429.28382587555097416
 20
9705104.36584912799298763
 30
0.0
 70
    32
  0
VERTEX
  5
c4
330
   130
100
AcDbEntity
  8
PAK
420
     0
100
AcDbVertex
100
AcDb3dPolylineVertex
 10
187401.73118441889528185
 20
9704682.50546761229634285
 30
0.0
 70
    32
  0
VERTEX
  5
c5
330
   130
100
AcDbEntity
  8
PAK
420
     0
100
AcDbVertex
100
AcDb3dPolylineVertex
 10
187401.65530095825670287
 20
9704681.34374061413109303
 30
0.0
 70
    32
  0
VERTEX
  5
c6
330
   130
100
AcDbEntity
  8
PAK
420
     0
100
AcDbVertex
100
AcDb3dPolylineVertex
 10
187447.97247919836081564
 20
9703927.57927539385855198
 30
0.0
 70
    32
  0
VERTEX
  5
c7
330
   130
100
AcDbEntity
  8
PAK
420
     0
100
AcDbVertex
100
AcDb3dPolylineVertex
 10
187428.23114159773103893
 20
9702732.40171337313950062
 30
0.0
 70
    32
  0
SEQEND
  5
c8
330
   130
100
AcDbEntity
  8
PAK
420
     0
  0
HATCH
  5
c9
330
6d
100
AcDbEntity
  8
PAK
420
12106625
100
AcDbHatch
 10
0.0
 20
0.0
 30
0.0
210
0.0
220
0.0
230
1.0
  2
SOLID
 70
     1
 71
     0
 91
     1
 92
     2
 72
     0
 73
     1
 93
    70
 10
187409.72505714034195989
 20
9702510.7526665274053812
 30
0.0
 10
186833.30316631030291319
 20
9702500.42037942446768284
 30
0.0
 10
186021.01914219179889187
 20
9702500.13069398701190948
 30
0.0
 10
185120.95447900122962892
 20
9702501.21949557401239872
 30
0.0
 10
185018.82728281139861792
 20
9702497.80863621830940247
 30
0.0
 10
184961.40602573362411931
 20
9702484.97977674007415771
 30
0.0
 10
184872.14873657148564234
 20
9702437.16406287811696529
 30
0.0
 10
184363.67215592425782233
 20
9702177.30842185206711292
 30
0.0
 10
184051.22401086648460478
 20
9702030.58033266104757786
 30
0.0
 10
183910.81789558206219226
 20
9702017.55721298791468143
 30
0.0
 10
183735.29525819339323789
 20
9702007.62589137814939022
 30
0.0
 10
183205.40075095475185663
 20
9702034.95357725024223328
 30
0.0
 10
183144.72798223403515294
 20
9702047.5075049139559269
 30
0.0
 10
183001.04010386660229415
 20
9702072.5630611777305603
 30
0.0
 10
182898.86704427003860474
 20
9702088.19380094669759274
 30
0.0
 10
182739.24975281144725159
 20
9702100.51609724014997482
 30
0.0
 10
182684.97506655484903604
 20
9702106.73696212843060493
 30
0.0
 10
182335.51085352886002511
 20
9702091.63560854271054268
 30
0.0
 10
181786.57847267703618854
 20
9702068.13017158024013042
 30
0.0
 10
181315.81662224506726488
 20
9702055.9151182509958744
 30
0.0
 10
180562.59718851605430245
 20
9702035.09785243310034275
 30
0.0
 10
180380.70148895995225757
 20
9702018.79891825094819069
 30
0.0
 10
179749.0063895225757733
 20
9701896.69445661455392838
 30
0.0
 10
179541.59771458845352754
 20
9701870.81167035549879074
 30
0.0
 10
179308.69920657586771995
 20
9701825.82389065995812416
 30
0.0
 10
179165.08916467824019492
 20
9701815.96161340735852718
 30
0.0
 10
178973.57126528222579509
 20
9701818.68179008364677429
 30
0.0
 10
178791.58343802933814004
 20
9701840.46862572059035301
 30
0.0
 10
178692.63613559945952147
 20
9701840.23391477949917316
 30
0.0
 10
178513.9451676303287968
 20
9701817.59144433401525021
 30
0.0
 10
178146.97198417288018391
 20
9701778.63094509206712246
 30
0.0
 10
177958.79151384613942355
 20
9701764.00434024259448051
 30
0.0
 10
178057.87011999235255644
 20
9702633.04393680766224861
 30
0.0
 10
178032.93608794588362798
 20
9703120.4034638199955225
 30
0.0
 10
178011.10726867592893541
 20
9703551.61917285807430744
 30
0.0
 10
178010.2340004532597959
 20
9703561.74977996200323105
 30
0.0
 10
177994.8673432266805321
 20
9703774.91950298100709915
 30
0.0
 10
177982.87921523785917088
 20
9703937.7996539194136858
 30
0.0
 10
177976.90555953851435333
 20
9704018.96368297375738621
 30
0.0
 10
177976.87897596962284297
 20
9704019.32522056438028812
 30
0.0
 10
177976.60432771133491769
 20
9704024.28923665173351765
 30
0.0
 10
177976.43530920601915568
 20
9704027.34576905518770218
 30
0.0
 10
177963.74514381738845259
 20
9704228.82386781647801399
 30
0.0
 10
177949.86256330646574497
 20
9704449.2274508886039257
 30
0.0
 10
177954.05048433283809572
 20
9704464.78073392249643803
 30
0.0
 10
178017.64039409661199898
 20
9704692.36575218476355076
 30
0.0
 10
178156.47351710987277329
 20
9705192.19911962933838367
 30
0.0
 10
178203.48030996299348772
 20
9705370.98934797197580338
 30
0.0
 10
178254.97478524723555893
 20
9705630.16260459274053574
 30
0.0
 10
178271.43285484588705003
 20
9705733.15789693966507912
 30
0.0
 10
178312.46779059851542115
 20
9705895.32780060358345509
 30
0.0
 10
178872.17651147325523198
 20
9705849.97559434548020363
 30
0.0
 10
179313.1223514667362906
 20
9705816.13420373201370239
 30
0.0
 10
179694.77805202954914421
 20
9705784.64414390549063683
 30
0.0
 10
180134.86436488415347412
 20
9705759.93168771080672741
 30
0.0
 10
180560.79525759408716112
 20
9705717.74915160797536373
 30
0.0
 10
180987.54590902390191332
 20
9705681.37943531386554241
 30
0.0
 10
181409.30446344497613609
 20
9705636.69429695047438145
 30
0.0
 10
181833.54502094595227391
 20
9705601.14691921323537827
 30
0.0
 10
182671.38002535491250455
 20
9705528.15622022375464439
 30
0.0
 10
183093.11762338189873844
 20
9705489.69396047666668892
 30
0.0
 10
184446.27760535752167925
 20
9705362.3090949859470129
 30
0.0
 10
185655.86607496719807386
 20
9705257.41605667769908905
 30
0.0
 10
186899.38946126581868157
 20
9705139.61945203691720963
 30
0.0
 10
187429.28382587555097416
 20
9705104.36584912799298763
 30
0.0
 10
187401.73118441889528185
 20
9704682.50546761229634285
 30
0.0
 10
187401.65530095825670287
 20
9704681.34374061413109303
 30
0.0
 10
187447.97247919836081564
 20
9703927.57927539385855198
 30
0.0
 10
187428.23114159773103893
 20
9702732.40171337313950062
 30
0.0
 10
187409.72505714034195989
 20
9702510.7526665274053812
 30
0.0
 97
     0
 75
     0
 76
     1
 98
     0
  0
MTEXT
  5
ca
100
AcDbEntity
100
AcDbMText
  8
PAK
420
     0
 10
182365.20868585546850227
 20
9703819.82501745223999023
  1
\fMS Shell Dlg 2|i0|b0;\H0.00257969;HD. GOHONG
 50
0.0
 41
0.01891770939199336
 71
     7
  7
STANDARD
  0
ENDSEC
  0
SECTION
  2
OBJECTS
  0
DICTIONARY
  5
C
330
0
100
AcDbDictionary
281
     1
  3
ACAD_GROUP
350
D
  3
ACAD_LAYOUT
350
1A
  3
ACAD_MLEADERSTYLE
350
43
  3
ACAD_MLINESTYLE
350
17
  3
ACAD_PLOTSETTINGS
350
19
  3
ACAD_PLOTSTYLENAME
350
E
  3
ACAD_TABLESTYLE
350
42
  3
ACAD_VISUALSTYLE
350
2A
  0
DICTIONARY
  5
D
102
{ACAD_REACTORS
330
C
102
}
330
C
100
AcDbDictionary
281
     1
  0
DICTIONARY
  5
1A
102
{ACAD_REACTORS
330
C
102
}
330
C
100
AcDbDictionary
281
     1
  3
Layout1
350
1E
  3
Layout2
350
26
  3
Model
350
22
  0
DICTIONARY
  5
43
102
{ACAD_REACTORS
330
C
102
}
330
C
100
AcDbDictionary
281
     1
  0
DICTIONARY
  5
17
102
{ACAD_REACTORS
330
C
102
}
330
C
100
AcDbDictionary
281
     1
  3
Standard
350
18
  0
DICTIONARY
  5
19
102
{ACAD_REACTORS
330
C
102
}
330
C
100
AcDbDictionary
281
     1
  0
ACDBDICTIONARYWDFLT
  5
E
102
{ACAD_REACTORS
330
C
102
}
330
C
100
AcDbDictionary
281
     1
  3
Normal
350
F
100
AcDbDictionaryWithDefault
340
F
  0
DICTIONARY
  5
42
102
{ACAD_REACTORS
330
C
102
}
330
C
100
AcDbDictionary
281
     1
  0
DICTIONARY
  5
2A
102
{ACAD_REACTORS
330
C
102
}
330
C
100
AcDbDictionary
281
     1
  3
2dWireframe
350
2F
  3
3D Hidden
350
31
  3
3dWireframe
350
30
  3
Basic
350
32
  3
Brighten
350
36
  3
ColorChange
350
3A
  3
Conceptual
350
34
  3
Dim
350
35
  3
Facepattern
350
39
  3
Flat
350
2B
  3
FlatWithEdges
350
2C
  3
Gouraud
350
2D
  3
GouraudWithEdges
350
2E
  3
Linepattern
350
38
  3
Realistic
350
33
  3
Thicken
350
37
  0
LAYOUT
  5
1E
102
{ACAD_REACTORS
330
1A
102
}
330
1A
100
AcDbPlotSettings
  1

  2
none_device
  4

  6

 40
0.0
 41
0.0
 42
0.0
 43
0.0
 44
0.0
 45
0.0
 46
0.0
 47
0.0
 48
0.0
 49
0.0
140
0.0
141
0.0
142
1.0
143
1.0
 70
   688
 72
     0
 73
     0
 74
     5
  7

 75
    16
 76
     0
 77
     2
 78
   300
147
1.0
148
0.0
149
0.0
100
AcDbLayout
  1
Layout1
 70
     1
 71
     1
 10
0.0
 20
0.0
 11
12.0
 21
9.0
 12
0.0
 22
0.0
 32
0.0
 14
1.000000000000000E+20
 24
1.000000000000000E+20
 34
1.000000000000000E+20
 15
-1.000000000000000E+20
 25
-1.000000000000000E+20
 35
-1.000000000000000E+20
146
0.0
 13
0.0
 23
0.0
 33
0.0
 16
1.0
 26
0.0
 36
0.0
 17
0.0
 27
1.0
 37
0.0
 76
     0
330
1B
  0
LAYOUT
  5
26
102
{ACAD_REACTORS
330
1A
102
}
330
1A
100
AcDbPlotSettings
  1

  2
none_device
  4

  6

 40
0.0
 41
0.0
 42
0.0
 43
0.0
 44
0.0
 45
0.0
 46
0.0
 47
0.0
 48
0.0
 49
0.0
140
0.0
141
0.0
142
1.0
143
1.0
 70
   688
 72
     0
 73
     0
 74
     5
  7

 75
    16
 76
     0
 77
     2
 78
   300
147
1.0
148
0.0
149
0.0
100
AcDbLayout
  1
Layout2
 70
     1
 71
     2
 10
0.0
 20
0.0
 11
0.0
 21
0.0
 12
0.0
 22
0.0
 32
0.0
 14
0.0
 24
0.0
 34
0.0
 15
0.0
 25
0.0
 35
0.0
146
0.0
 13
0.0
 23
0.0
 33
0.0
 16
1.0
 26
0.0
 36
0.0
 17
0.0
 27
1.0
 37
0.0
 76
     0
330
23
  0
LAYOUT
  5
22
102
{ACAD_REACTORS
330
1A
102
}
330
1A
100
AcDbPlotSettings
  1

  2
none_device
  4

  6

 40
0.0
 41
0.0
 42
0.0
 43
0.0
 44
0.0
 45
0.0
 46
0.0
 47
0.0
 48
0.0
 49
0.0
140
0.0
141
0.0
142
1.0
143
1.0
 70
  1712
 72
     0
 73
     0
 74
     0
  7

 75
     0
 76
     0
 77
     2
 78
   300
147
1.0
148
0.0
149
0.0
100
AcDbLayout
  1
Model
 70
     1
 71
     0
 10
0.0
 20
0.0
 11
12.0
 21
9.0
 12
0.0
 22
0.0
 32
0.0
 14
30.0
 24
49.75
 34
0.0
 15
130.5
 25
163.1318914119703
 35
0.0
146
0.0
 13
0.0
 23
0.0
 33
0.0
 16
1.0
 26
0.0
 36
0.0
 17
0.0
 27
1.0
 37
0.0
 76
     0
330
1F
331
29
  0
MLINESTYLE
  5
18
102
{ACAD_REACTORS
330
17
102
}
330
17
100
AcDbMlineStyle
  2
Standard
 70
     0
  3

 62
   256
 51
90.0
 52
90.0
 71
     2
 49
0.5
 62
   256
  6
BYLAYER
 49
-0.5
 62
   256
  6
BYLAYER
  0
ACDBPLACEHOLDER
  5
F
102
{ACAD_REACTORS
330
E
102
}
330
E
  0
VISUALSTYLE
  5
2F
102
{ACAD_REACTORS
330
2A
102
}
330
2A
100
AcDbVisualStyle
  2
2dWireframe
 70
     4
 71
     0
 72
     2
 73
     0
 90
        0
 40
-0.6
 41
-30.0
 62
     5
 63
     7
421
 16777215
 74
     1
 91
        4
 64
     7
 65
   257
 75
     1
175
     1
 42
1.0
 92
        0
 66
   257
 43
1.0
 76
     1
 77
     6
 78
     2
 67
     7
 79
     5
170
     0
171
     0
290
     0
174
     0
 93
        1
 44
0.0
173
     0
291
     0
 45
0.0
1001
ACAD
1000
AcDbSavedByObjectVersion
1070
     0
  0
VISUALSTYLE
  5
31
102
{ACAD_REACTORS
330
2A
102
}
330
2A
100
AcDbVisualStyle
  2
3D Hidden
 70
     6
 71
     1
 72
     2
 73
     2
 90
        0
 40
-0.6
 41
-30.0
 62
     5
 63
     7
421
 16777215
 74
     2
 91
        2
 64
     7
 65
   257
 75
     2
175
     1
 42
40.0
 92
        0
 66
   257
 43
1.0
 76
     1
 77
     6
 78
     2
 67
     7
 79
     3
170
     0
171
     0
290
     0
174
     0
 93
        1
 44
0.0
173
     0
291
     0
 45
0.0
1001
ACAD
1000
AcDbSavedByObjectVersion
1070
     0
  0
VISUALSTYLE
  5
30
102
{ACAD_REACTORS
330
2A
102
}
330
2A
100
AcDbVisualStyle
  2
3dWireframe
 70
     5
 71
     0
 72
     2
 73
     0
 90
        0
 40
-0.6
 41
-30.0
 62
     5
 63
     7
421
 16777215
 74
     1
 91
        4
 64
     7
 65
   257
 75
     1
175
     1
 42
1.0
 92
        0
 66
   257
 43
1.0
 76
     1
 77
     6
 78
     2
 67
     7
 79
     5
170
     0
171
     0
290
     0
174
     0
 93
        1
 44
0.0
173
     0
291
     0
 45
0.0
1001
ACAD
1000
AcDbSavedByObjectVersion
1070
     0
  0
VISUALSTYLE
  5
32
102
{ACAD_REACTORS
330
2A
102
}
330
2A
100
AcDbVisualStyle
  2
Basic
 70
     7
 71
     1
 72
     0
 73
     1
 90
        0
 40
-0.6
 41
-30.0
 62
     5
 63
     7
421
 16777215
 74
     0
 91
        4
 64
     7
 65
   257
 75
     1
175
     1
 42
1.0
 92
        8
 66
     7
 43
1.0
 76
     1
 77
     6
 78
     2
 67
     7
 79
     5
170
     0
171
     0
290
     0
174
     0
 93
        1
 44
0.0
173
     0
291
     1
 45
0.0
1001
ACAD
1000
AcDbSavedByObjectVersion
1070
     0
  0
VISUALSTYLE
  5
36
102
{ACAD_REACTORS
330
2A
102
}
330
2A
100
AcDbVisualStyle
  2
Brighten
 70
    12
 71
     2
 72
     2
 73
     0
 90
        0
 40
-0.6
 41
-30.0
 62
     5
 63
     7
421
 16777215
 74
     1
 91
        4
 64
     7
 65
   257
 75
     1
175
     1
 42
1.0
 92
        8
 66
     7
 43
1.0
 76
     1
 77
     6
 78
     2
 67
     7
 79
     5
170
     0
171
     0
290
     0
174
     0
 93
        1
 44
50.0
173
     0
291
     1
 45
0.0
1001
ACAD
1000
AcDbSavedByObjectVersion
1070
     0
  0
VISUALSTYLE
  5
3A
102
{ACAD_REACTORS
330
2A
102
}
330
2A
100
AcDbVisualStyle
  2
ColorChange
 70
    16
 71
     2
 72
     2
 73
     3
 90
        0
 40
-0.6
 41
-30.0
 62
     5
 63
     8
421
  8421504
 74
     1
 91
        4
 64
     7
 65
   257
 75
     1
175
     1
 42
1.0
 92
        8
 66
     8
424
  8421504
 43
1.0
 76
     1
 77
     6
 78
     2
 67
     7
 79
     5
170
     0
171
     0
290
     0
174
     0
 93
        1
 44
0.0
173
     0
291
     1
 45
0.0
1001
ACAD
1000
AcDbSavedByObjectVersion
1070
     0
  0
VISUALSTYLE
  5
34
102
{ACAD_REACTORS
330
2A
102
}
330
2A
100
AcDbVisualStyle
  2
Conceptual
 70
     9
 71
     3
 72
     2
 73
     0
 90
        0
 40
-0.6
 41
-30.0
 62
     5
 63
     7
421
 16777215
 74
     2
 91
        2
 64
     7
 65
   257
 75
     1
175
     1
 42
40.0
 92
        8
 66
     7
 43
1.0
 76
     1
 77
     6
 78
     2
 67
     7
 79
     3
170
     0
171
     0
290
     0
174
     0
 93
        1
 44
0.0
173
     0
291
     0
 45
0.0
1001
ACAD
1000
AcDbSavedByObjectVersion
1070
     0
  0
VISUALSTYLE
  5
35
102
{ACAD_REACTORS
330
2A
102
}
330
2A
100
AcDbVisualStyle
  2
Dim
 70
    11
 71
     2
 72
     2
 73
     0
 90
        0
 40
-0.6
 41
-30.0
 62
     5
 63
     7
421
 16777215
 74
     1
 91
        4
 64
     7
 65
   257
 75
     1
175
     1
 42
1.0
 92
        8
 66
     7
 43
1.0
 76
     1
 77
     6
 78
     2
 67
     7
 79
     5
170
     0
171
     0
290
     0
174
     0
 93
        1
 44
-50.0
173
     0
291
     1
 45
0.0
1001
ACAD
1000
AcDbSavedByObjectVersion
1070
     0
  0
VISUALSTYLE
  5
39
102
{ACAD_REACTORS
330
2A
102
}
330
2A
100
AcDbVisualStyle
  2
Facepattern
 70
    15
 71
     2
 72
     2
 73
     0
 90
        0
 40
-0.6
 41
-30.0
 62
     5
 63
     7
421
 16777215
 74
     1
 91
        4
 64
     7
 65
   257
 75
     1
175
     1
 42
1.0
 92
        8
 66
     7
 43
1.0
 76
     1
 77
     6
 78
     2
 67
     7
 79
     5
170
     0
171
     0
290
     0
174
     0
 93
        1
 44
0.0
173
     0
291
     1
 45
0.0
1001
ACAD
1000
AcDbSavedByObjectVersion
1070
     0
  0
VISUALSTYLE
  5
2B
102
{ACAD_REACTORS
330
2A
102
}
330
2A
100
AcDbVisualStyle
  2
Flat
 70
     0
 71
     2
 72
     1
 73
     1
 90
        2
 40
-0.6
 41
30.0
 62
     5
 63
     7
421
 16777215
 74
     0
 91
        4
 64
     7
 65
   257
 75
     1
175
     1
 42
1.0
 92
        8
 66
     7
 43
1.0
 76
     1
 77
     6
 78
     2
 67
     7
 79
     5
170
     0
171
     0
290
     0
174
     0
 93
       13
 44
0.0
173
     0
291
     1
 45
0.0
1001
ACAD
1000
AcDbSavedByObjectVersion
1070
     0
  0
VISUALSTYLE
  5
2C
102
{ACAD_REACTORS
330
2A
102
}
330
2A
100
AcDbVisualStyle
  2
FlatWithEdges
 70
     1
 71
     2
 72
     1
 73
     1
 90
        2
 40
-0.6
 41
30.0
 62
     5
 63
     7
421
 16777215
 74
     1
 91
        4
 64
     7
 65
   257
 75
     1
175
     1
 42
1.0
 92
        0
 66
   257
 43
1.0
 76
     1
 77
     6
 78
     2
 67
     7
 79
     5
170
     0
171
     0
290
     0
174
     0
 93
       13
 44
0.0
173
     0
291
     1
 45
0.0
1001
ACAD
1000
AcDbSavedByObjectVersion
1070
     0
  0
VISUALSTYLE
  5
2D
102
{ACAD_REACTORS
330
2A
102
}
330
2A
100
AcDbVisualStyle
  2
Gouraud
 70
     2
 71
     2
 72
     2
 73
     1
 90
        2
 40
-0.6
 41
30.0
 62
     5
 63
     7
421
 16777215
 74
     0
 91
        4
 64
     7
 65
   257
 75
     1
175
     1
 42
1.0
 92
        0
 66
     7
 43
1.0
 76
     1
 77
     6
 78
     2
 67
     7
 79
     5
170
     0
171
     0
290
     0
174
     0
 93
       13
 44
0.0
173
     0
291
     1
 45
0.0
1001
ACAD
1000
AcDbSavedByObjectVersion
1070
     0
  0
VISUALSTYLE
  5
2E
102
{ACAD_REACTORS
330
2A
102
}
330
2A
100
AcDbVisualStyle
  2
GouraudWithEdges
 70
     3
 71
     2
 72
     2
 73
     1
 90
        2
 40
-0.6
 41
30.0
 62
     5
 63
     7
421
 16777215
 74
     1
 91
        4
 64
     7
 65
   257
 75
     1
175
     1
 42
1.0
 92
        0
 66
   257
 43
1.0
 76
     1
 77
     6
 78
     2
 67
     7
 79
     5
170
     0
171
     0
290
     0
174
     0
 93
       13
 44
0.0
173
     0
291
     1
 45
0.0
1001
ACAD
1000
AcDbSavedByObjectVersion
1070
     0
  0
VISUALSTYLE
  5
38
102
{ACAD_REACTORS
330
2A
102
}
330
2A
100
AcDbVisualStyle
  2
Linepattern
 70
    14
 71
     2
 72
     2
 73
     0
 90
        0
 40
-0.6
 41
-30.0
 62
     5
 63
     7
421
 16777215
 74
     1
 91
        4
 64
     7
 65
   257
 75
     7
175
     7
 42
1.0
 92
        8
 66
     7
 43
1.0
 76
     1
 77
     6
 78
     2
 67
     7
 79
     5
170
     0
171
     0
290
     0
174
     0
 93
        1
 44
0.0
173
     0
291
     1
 45
0.0
1001
ACAD
1000
AcDbSavedByObjectVersion
1070
     0
  0
VISUALSTYLE
  5
33
102
{ACAD_REACTORS
330
2A
102
}
330
2A
100
AcDbVisualStyle
  2
Realistic
 70
     8
 71
     2
 72
     2
 73
     0
 90
        0
 40
-0.6
 41
-30.0
 62
     5
 63
     7
421
 16777215
 74
     1
 91
        0
 64
     7
 65
   257
 75
     1
175
     1
 42
1.0
 92
        8
 66
     8
424
  7895160
 43
1.0
 76
     1
 77
     6
 78
     2
 67
     7
 79
     5
170
     0
171
     0
290
     0
174
     0
 93
       13
 44
0.0
173
     0
291
     0
 45
0.0
1001
ACAD
1000
AcDbSavedByObjectVersion
1070
     0
  0
VISUALSTYLE
  5
37
102
{ACAD_REACTORS
330
2A
102
}
330
2A
100
AcDbVisualStyle
  2
Thicken
 70
    13
 71
     2
 72
     2
 73
     0
 90
        0
 40
-0.6
 41
-30.0
 62
     5
 63
     7
421
 16777215
 74
     1
 91
        4
 64
     7
 65
   257
 75
     1
175
     1
 42
1.0
 92
       12
 66
     7
 43
1.0
 76
     1
 77
     6
 78
     2
 67
     7
 79
     5
170
     0
171
     0
290
     0
174
     0
 93
        1
 44
0.0
173
     0
291
     1
 45
0.0
1001
ACAD
1000
AcDbSavedByObjectVersion
1070
     0
  0
ENDSEC
  0
EOF
